<?xml version="1.0" encoding="UTF-8" standalone="no"?>
<!-- Created with Inkscape (http://www.inkscape.org/) -->

<svg
   xmlns:dc="http://purl.org/dc/elements/1.1/"
   xmlns:cc="http://creativecommons.org/ns#"
   xmlns:rdf="http://www.w3.org/1999/02/22-rdf-syntax-ns#"
   xmlns:svg="http://www.w3.org/2000/svg"
   xmlns="http://www.w3.org/2000/svg"
   xmlns:sodipodi="http://sodipodi.sourceforge.net/DTD/sodipodi-0.dtd"
   xmlns:inkscape="http://www.inkscape.org/namespaces/inkscape"
   sodipodi:docname="icon.svg"
   viewBox="0 0 666.66669 666.66669"
   height="666.66669"
   width="666.66669"
   xml:space="preserve"
   id="svg4563"
   version="1.1"
   inkscape:export-filename="D:\Programming\javascript\react-redux-laundryview\assets\images\icon.png"
   inkscape:export-xdpi="96"
   inkscape:export-ydpi="96"
   inkscape:version="0.92.3 (2405546, 2018-03-11)"><sodipodi:namedview
     inkscape:current-layer="svg4563"
     inkscape:window-maximized="1"
     inkscape:window-y="145"
     inkscape:window-x="78"
     inkscape:cy="218.20492"
     inkscape:cx="-208.08596"
     inkscape:zoom="0.5"
     showgrid="false"
     id="namedview4565"
     inkscape:window-height="480"
     inkscape:window-width="1278"
     inkscape:pageshadow="2"
     inkscape:pageopacity="0"
     guidetolerance="10"
     gridtolerance="10"
     objecttolerance="10"
     borderopacity="1"
     bordercolor="#666666"
     pagecolor="#ffffff" /><metadata
     id="metadata4569"><rdf:RDF><cc:Work
         rdf:about=""><dc:format>image/svg+xml</dc:format><dc:type
           rdf:resource="http://purl.org/dc/dcmitype/StillImage" /><dc:title /></cc:Work></rdf:RDF></metadata><defs
     id="defs4567"><clipPath
       id="clipPath5117"
       clipPathUnits="userSpaceOnUse"><path
         inkscape:connector-curvature="0"
         id="path5115"
         d="M 0,500 H 500 V 0 H 0 Z" /></clipPath><clipPath
       id="clipPath"><rect
         y="558.66669"
         x="150"
         height="98"
         width="294"
         id="rect6151"
         style="fill:#71baaa;fill-opacity:1;stroke:none;stroke-width:20;stroke-miterlimit:4;stroke-dasharray:none;stroke-opacity:1" /></clipPath><clipPath
       id="clipPath-4"><rect
         y="558.66669"
         x="150"
         height="98"
         width="294"
         id="rect6151-2"
         style="fill:#71baaa;fill-opacity:1;stroke:none;stroke-width:20;stroke-miterlimit:4;stroke-dasharray:none;stroke-opacity:1" /></clipPath><clipPath
       id="clipPath-2"><rect
         y="558.66669"
         x="150"
         height="98"
         width="294"
         id="rect6151-0"
         style="fill:#71baaa;fill-opacity:1;stroke:none;stroke-width:20;stroke-miterlimit:4;stroke-dasharray:none;stroke-opacity:1" /></clipPath></defs><ellipse
     ry="267.33484"
     rx="267.33337"
     cy="333.33185"
     cx="333.33337"
     style="fill:#4ebaaa;fill-opacity:1;stroke:none;stroke-width:1.18896735"
     id="path5127" /><path
     d="M 506.20508,433 A 200,200 0 0 1 281.23619,526.18517 200,200 0 0 1 133,333 200,200 0 0 1 281.23619,139.81484 200,200 0 0 1 506.20508,232.99999 L 333,333 Z"
     sodipodi:end="5.7595865"
     sodipodi:start="0.52359878"
     sodipodi:ry="200"
     sodipodi:rx="200"
     sodipodi:cy="333"
     sodipodi:cx="333"
     sodipodi:type="arc"
     style="fill:none;fill-opacity:1;stroke:#00897b;stroke-width:20;stroke-miterlimit:4;stroke-dasharray:none;stroke-opacity:1"
     id="path5127-3" /><ellipse
     ry="163.33484"
     rx="163.33394"
     cy="333"
     cx="333"
     style="fill:#4ebaaa;fill-opacity:1;stroke:none;stroke-width:0.72642905"
     id="path5127-2" /><path
     inkscape:connector-curvature="0"
     id="path6085"
     d="M 479.1875,423.1706 V 242.82591"
     style="fill:none;stroke:#00897b;stroke-width:20.84623528;stroke-linecap:butt;stroke-linejoin:miter;stroke-miterlimit:4;stroke-dasharray:none;stroke-opacity:1" /><path
     id="path7537"
     clip-path="url(#clipPath)"
     title="sin(x)"
     d="m 150,607.66669 c 0.77165,0 1.54331,-2.23483 2.31496,-2.31118 0.77165,-0.0764 1.54331,-2.13587 2.31496,-2.28858 0.77165,-0.15271 1.54331,-2.01452 2.31496,-2.24358 0.77166,-0.22906 1.54331,-1.87122 2.31496,-2.17663 0.77166,-0.30541 1.54331,-1.70662 2.31496,-2.08839 0.77166,-0.38177 1.54331,-1.5216 2.31496,-1.97972 0.77166,-0.45812 1.54331,-1.31721 2.31496,-1.85169 0.77166,-0.53447 1.54331,-1.09471 2.31497,-1.70553 0.77165,-0.61083 1.5433,-0.85552 2.31496,-1.5427 0.77165,-0.68718 1.5433,-0.60124 2.31496,-1.36477 0.77165,-0.76354 1.5433,-0.33361 2.31496,-1.1735 0.77165,-0.83988 1.5433,-0.0545 2.31496,-0.97073 0.77165,-0.91624 1.5433,0.23411 2.31496,-0.75848 0.77165,-0.99259 1.54331,0.53014 2.31496,-0.53881 0.77165,-1.06894 1.54331,0.83145 2.31496,-0.31385 0.77165,-1.14531 1.54331,1.13581 2.31496,-0.0859 0.77165,-1.22165 1.54331,1.44102 2.31496,0.14302 0.77165,-1.29801 1.54331,1.74483 2.31496,0.37047 0.77165,-1.37437 1.54331,2.04501 2.31496,0.5943 0.77166,-1.45072 1.54331,2.33939 2.31496,0.81232 0.77166,-1.52707 1.54331,2.62582 2.31496,1.02239 0.77166,-1.60342 1.54331,2.90224 2.31496,1.22247 0.77166,-1.67978 1.54331,3.1667 2.31496,1.41057 0.77166,-1.75613 1.54331,3.41737 2.31497,1.58489 0.77165,-1.83248 1.5433,3.65253 2.31496,1.7437 0.77165,-1.90884 1.5433,3.87063 2.31496,1.88544 0.77165,-1.98519 1.5433,4.07029 2.31496,2.00875 0.77165,-2.06154 1.5433,4.2503 2.31496,2.1124 0.77165,-2.13789 1.5433,4.40965 2.31496,2.1954 0.77165,-2.21425 1.54331,4.54751 2.31496,2.2569 0.77165,-2.2906 1.54331,4.6633 2.31496,2.29634 0.77165,-2.36695 1.54331,4.75662 2.31496,2.31331 0.77165,-2.44331 1.54331,4.82731 2.31496,2.30765 0.77165,-2.51966 1.54331,4.87543 2.31496,2.27941 0.77165,-2.59602 1.54331,4.90125 2.31496,2.22888 0.77166,-2.67237 1.54331,4.90526 2.31496,2.15653 0.77166,-2.74872 1.54331,4.88818 2.31496,2.06311 0.77166,-2.82508 1.54331,4.85091 2.31496,1.94948 0.77166,-2.90143 1.54331,4.79457 2.31496,1.81679 0.77166,-2.97778 1.54331,4.72047 2.31497,1.66633 0.77165,-3.05414 1.5433,4.63006 2.31496,1.49957 0.77165,-3.13049 1.5433,4.52497 2.31496,1.31813 0.77165,-3.20684 1.5433,4.407 2.31496,1.1238 0.77165,-3.28319 1.5433,4.27804 2.31496,0.91849 0.77165,-3.35955 1.5433,4.14007 2.31496,0.70417 0.77165,-3.4359 1.54331,3.99523 2.31496,0.48298 0.77165,-3.51226 1.54331,3.84566 2.31496,0.25705 0.77165,-3.58861 1.54331,3.69359 2.31496,0.0286 0.77165,-3.66496 1.54331,3.54122 2.31496,-0.20009 0.77165,-3.74132 1.54331,3.39081 2.31496,-0.42686 0.77166,-3.81767 1.54331,3.24459 2.31496,-0.64943 0.77166,-3.89403 1.54331,3.10471 2.31496,-0.86567 0.77166,-3.97038 1.54331,2.9733 2.31496,-1.07343 0.77166,-4.04673 1.54331,2.8524 2.31496,-1.27068 0.77166,-4.12309 1.54331,2.74392 2.31496,-1.45552 0.77166,-4.19944 1.54331,2.64968 2.31497,-1.62611 0.77165,-4.27579 1.5433,2.57136 2.31496,-1.78079 0.77165,-4.35214 1.5433,2.51045 2.31496,-1.91805 0.77165,-4.4285 1.5433,2.46831 2.31496,-2.03655 0.77165,-4.50485 1.5433,2.44609 2.31496,-2.13512 0.77165,-4.5812 1.5433,2.44475 2.31496,-2.21281 0.77165,-4.65756 1.54331,2.46506 2.31496,-2.26885 0.77165,-4.73392 1.54331,2.50756 2.31496,-2.3027 0.77165,-4.81027 1.54331,2.5726 2.31496,-2.31402 0.77165,-4.88662 1.54331,2.66028 2.31496,-2.3027 0.77165,-4.96297 1.54331,2.77048 2.31496,-2.26885 0.77166,-5.03932 1.54331,2.90287 2.31496,-2.21281 0.77166,-5.11568 1.54331,3.05691 2.31496,-2.13512 0.77166,-5.19204 1.54331,3.23183 2.31496,-2.03655 0.77166,-5.26839 1.54331,3.42669 2.31496,-1.91805 0.77166,-5.34474 1.54331,3.6403 2.31496,-1.78079 0.77166,-5.4211 1.54331,3.87134 2.31497,-1.62611 0.77165,-5.49745 1.5433,4.11828 2.31496,-1.45552 0.77165,-5.5738 1.5433,4.37947 2.31496,-1.27068 0.77165,-5.65016 1.5433,4.65308 2.31496,-1.07343 0.77165,-5.72651 1.5433,4.93719 2.31496,-0.86567 0.77165,-5.80286 1.5433,5.22978 2.31496,-0.64943 0.77165,-5.87922 1.54331,5.52871 2.31496,-0.42686 0.77165,-5.95556 1.54331,5.83183 2.31496,-0.20009 0.77165,-6.03192 1.54331,6.13689 2.31496,0.0286 0.77165,-6.10828 1.54331,6.44168 2.31496,0.25705 0.77165,-6.18462 1.54331,6.74396 2.31496,0.48298 0.77166,-6.26098 1.54331,7.04151 2.31496,0.70417 0.77166,-6.33733 1.54331,7.33217 2.31496,0.91849 0.77166,-6.41369 1.54331,7.61384 2.31496,1.1238 0.77166,-6.49004 1.54331,7.88453 2.31496,1.31813 0.77166,-6.56639 1.54331,8.14232 2.31496,1.49957 0.77166,-6.64275 1.54331,8.38543 2.31497,1.66633 0.77165,-6.7191 1.5433,8.61225 2.31496,1.81679 0.77165,-6.79545 1.5433,8.82129 2.31496,1.94948 0.77165,-6.8718 1.5433,9.01127 2.31496,2.06311 0.77165,-6.94816 1.5433,9.18105 2.31496,2.15653 0.77165,-7.02451 1.54331,9.32975 2.31496,2.22888 0.77165,-7.10087 1.54331,9.45663 2.31496,2.27941 0.77165,-7.17722 1.54331,9.56122 2.31496,2.30765 0.77165,-7.25358 1.54331,9.64324 2.31496,2.31331 0.77165,-7.32993 1.54331,9.70262 2.31496,2.29634 0.77165,-7.40629 1.54331,9.73954 2.31496,2.2569 0.77166,-7.48263 1.54331,9.75438 2.31496,2.1954 0.77166,-7.55899 1.54331,9.74774 2.31496,2.1124 0.77166,-7.63534 1.54331,9.72044 2.31496,2.00875 0.77166,-7.7117 1.54331,9.67349 2.31496,1.88544 0.77166,-7.78804 1.54331,9.6081 2.31496,1.7437 0.77166,-7.8644 1.54331,9.52564 2.31497,1.58489 0.77165,-7.94076 1.5433,9.42768 2.31496,1.41057 0.77165,-8.01711 1.5433,9.31593 2.31496,1.22247 0.77165,-8.09347 1.5433,9.19221 2.31496,1.02239 0.77165,-8.16982 1.5433,9.05849 2.31496,0.81232 0.77165,-8.24617 1.54331,8.91683 2.31496,0.5943 0.77165,-8.32252 1.54331,8.76935 2.31496,0.37047 0.77165,-8.39887 1.54331,8.61825 2.31496,0.14302 0.77165,-8.47523 1.54331,8.46574 2.31496,-0.0859 0.77165,-8.55158 1.54331,8.31408 2.31496,-0.31385 0.77165,-8.62794 1.54331,8.16548 2.31496,-0.53881 0.77166,-8.70429 1.54331,8.02216 2.31496,-0.75848 0.77166,-8.78064 1.54331,7.88626 2.31496,-0.97073 0.77166,-8.857 1.54331,7.75985 2.31496,-1.1735 0.77166,-8.93335 1.54331,7.64494 2.31496,-1.36477 0.77166,-9.0097 1.54331,7.54336 2.31496,-1.5427 0.77166,-9.08605 1.54331,7.45688 2.31497,-1.70553 0.77165,-9.16241 1.5433,7.38708 2.31496,-1.85169 0.77165,-9.23876 1.5433,7.3354 2.31496,-1.97972 0.77165,-9.31512 1.5433,7.30308 2.31496,-2.08839 0.77165,-9.39147 1.5433,7.29119 2.31496,-2.17663 0.77165,-9.46783 1.54331,7.3006 2.31496,-2.24358 0.77165,-9.54418 1.54331,7.33196 2.31496,-2.28858 0.77165,-9.62053 1.54331,7.3857 2.31496,-2.31118"
     style="fill:none;fill-opacity:1;stroke:#00897b;stroke-width:20;stroke-miterlimit:4;stroke-dasharray:none;stroke-opacity:1"
     inkscape:connector-curvature="0"
     transform="matrix(1.1385803,0,0,1,-30.742551,-238.74481)" /><path
     sodipodi:open="true"
     d="m 512.42785,296.04351 a 603.74738,142.78891 0 0 1 0,73.91298"
     sodipodi:end="0.26179939"
     sodipodi:start="6.0213859"
     sodipodi:ry="142.78891"
     sodipodi:rx="603.74738"
     sodipodi:cy="333"
     sodipodi:cx="-70.74733"
     sodipodi:type="arc"
     style="fill:#00897b;fill-opacity:1;stroke:none;stroke-width:29.3612709;stroke-miterlimit:4;stroke-dasharray:none;stroke-opacity:1"
     id="path5127-3-8" /><path
     transform="scale(-1)"
     d="m -66,-333.66669 a 267.3335,267.33484 0 0 1 -133.66675,231.51877 267.3335,267.33484 0 0 1 -267.3335,-1e-5 267.3335,267.33484 0 0 1 -133.66674,-231.51877 l 267.33349,10e-6 z"
     sodipodi:end="3.1415927"
     sodipodi:start="0"
     sodipodi:ry="267.33484"
     sodipodi:rx="267.3335"
     sodipodi:cy="-333.66669"
     sodipodi:cx="-333.3335"
     sodipodi:type="arc"
     style="fill:#000000;fill-opacity:0.29411766;stroke:none;stroke-width:1.18896735"
     id="path5127-2-4" /></svg>